<?xml version="1.0" encoding="utf-8"?>
<!-- Generator: Adobe Illustrator 27.5.0, SVG Export Plug-In . SVG Version: 6.00 Build 0)  -->
<svg version="1.1" xmlns="http://www.w3.org/2000/svg" xmlns:xlink="http://www.w3.org/1999/xlink" x="0px" y="0px"
	 viewBox="0 0 2200 2200" style="enable-background:new 0 0 2200 2200;" xml:space="preserve">
<g id="background">
	<rect style="fill:#FFFFFF;" width="2200" height="2200"/>
</g>
<g id="Objects">
	<g>
		<path style="fill:#53A6F9;" d="M1925.83,709.346H274.17V456.038c0-30.403,24.646-55.049,55.049-55.049h1541.562
			c30.403,0,55.049,24.646,55.049,55.049V709.346z"/>
		<path d="M1925.83,775.46v1067.793c0,30.403-24.647,55.05-55.05,55.05H329.22c-30.403,0-55.05-24.647-55.05-55.05V775.46
			c0-8.837,7.163-16,16-16h0c8.837,0,16,7.163,16,16v1067.793c0,12.73,10.32,23.05,23.05,23.05h1541.56
			c12.73,0,23.05-10.32,23.05-23.05V775.46c0-8.837,7.163-16,16-16l0,0C1918.667,759.46,1925.83,766.623,1925.83,775.46z"/>
		<path d="M600.693,996.549H428.671c-21.469,0-38.935-17.466-38.935-38.935V818.436c0-21.469,17.466-38.935,38.935-38.935h172.022
			c21.469,0,38.936,17.466,38.936,38.935v139.178C639.629,979.083,622.162,996.549,600.693,996.549z M428.671,811.501
			c-3.824,0-6.935,3.111-6.935,6.935v139.178c0,3.824,3.111,6.935,6.935,6.935h172.022c3.824,0,6.936-3.111,6.936-6.935V818.436
			c0-3.824-3.111-6.935-6.936-6.935H428.671z"/>
		<path d="M893.353,996.549H721.33c-21.469,0-38.935-17.466-38.935-38.935V818.436c0-21.469,17.466-38.935,38.935-38.935h172.022
			c21.469,0,38.935,17.466,38.935,38.935v139.178C932.287,979.083,914.821,996.549,893.353,996.549z M721.33,811.501
			c-3.824,0-6.935,3.111-6.935,6.935v139.178c0,3.824,3.11,6.935,6.935,6.935h172.022c3.823,0,6.935-3.111,6.935-6.935V818.436
			c0-3.824-3.111-6.935-6.935-6.935H721.33z"/>
		<path d="M1186.011,996.549h-172.021c-21.469,0-38.936-17.466-38.936-38.935V818.436c0-21.469,17.467-38.935,38.936-38.935h172.021
			c21.469,0,38.936,17.466,38.936,38.935v139.178C1224.946,979.083,1207.479,996.549,1186.011,996.549z M1013.989,811.501
			c-3.824,0-6.936,3.111-6.936,6.935v139.178c0,3.824,3.111,6.935,6.936,6.935h172.021c3.824,0,6.936-3.111,6.936-6.935V818.436
			c0-3.824-3.111-6.935-6.936-6.935H1013.989z"/>
		<path d="M1478.67,996.549h-172.022c-21.469,0-38.935-17.466-38.935-38.935V818.436c0-21.469,17.466-38.935,38.935-38.935h172.022
			c21.469,0,38.935,17.466,38.935,38.935v139.178C1517.604,979.083,1500.139,996.549,1478.67,996.549z M1306.647,811.501
			c-3.823,0-6.935,3.111-6.935,6.935v139.178c0,3.824,3.111,6.935,6.935,6.935h172.022c3.824,0,6.935-3.111,6.935-6.935V818.436
			c0-3.824-3.11-6.935-6.935-6.935H1306.647z"/>
		<path d="M1771.328,996.549h-172.021c-21.469,0-38.936-17.466-38.936-38.935V818.436c0-21.469,17.467-38.935,38.936-38.935h172.021
			c21.469,0,38.936,17.466,38.936,38.935v139.178C1810.264,979.083,1792.797,996.549,1771.328,996.549z M1599.307,811.501
			c-3.824,0-6.936,3.111-6.936,6.935v139.178c0,3.824,3.111,6.935,6.936,6.935h172.021c3.824,0,6.936-3.111,6.936-6.935V818.436
			c0-3.824-3.111-6.935-6.936-6.935H1599.307z"/>
		<path d="M600.693,1265.127H428.671c-21.469,0-38.935-17.466-38.935-38.935v-139.178c0-21.469,17.466-38.935,38.935-38.935h172.022
			c21.469,0,38.936,17.466,38.936,38.935v139.178C639.629,1247.661,622.162,1265.127,600.693,1265.127z M428.671,1080.08
			c-3.824,0-6.935,3.111-6.935,6.935v139.178c0,3.824,3.111,6.935,6.935,6.935h172.022c3.824,0,6.936-3.11,6.936-6.935v-139.178
			c0-3.824-3.111-6.935-6.936-6.935H428.671z"/>
		<path d="M893.353,1265.127H721.33c-21.469,0-38.935-17.466-38.935-38.935v-139.178c0-21.469,17.466-38.935,38.935-38.935h172.022
			c21.469,0,38.935,17.466,38.935,38.935v139.178C932.287,1247.661,914.821,1265.127,893.353,1265.127z M721.33,1080.08
			c-3.824,0-6.935,3.111-6.935,6.935v139.178c0,3.824,3.11,6.935,6.935,6.935h172.022c3.823,0,6.935-3.11,6.935-6.935v-139.178
			c0-3.824-3.111-6.935-6.935-6.935H721.33z"/>
		<path d="M1186.011,1265.127h-172.021c-21.469,0-38.936-17.466-38.936-38.935v-139.178c0-21.469,17.467-38.935,38.936-38.935
			h172.021c21.469,0,38.936,17.466,38.936,38.935v139.178C1224.946,1247.661,1207.479,1265.127,1186.011,1265.127z
			 M1013.989,1080.08c-3.824,0-6.936,3.111-6.936,6.935v139.178c0,3.824,3.111,6.935,6.936,6.935h172.021
			c3.824,0,6.936-3.11,6.936-6.935v-139.178c0-3.824-3.111-6.935-6.936-6.935H1013.989z"/>
		<path d="M1478.67,1265.127h-172.022c-21.469,0-38.935-17.466-38.935-38.935v-139.178c0-21.469,17.466-38.935,38.935-38.935
			h172.022c21.469,0,38.935,17.466,38.935,38.935v139.178C1517.604,1247.661,1500.139,1265.127,1478.67,1265.127z M1306.647,1080.08
			c-3.823,0-6.935,3.111-6.935,6.935v139.178c0,3.824,3.111,6.935,6.935,6.935h172.022c3.824,0,6.935-3.11,6.935-6.935v-139.178
			c0-3.824-3.11-6.935-6.935-6.935H1306.647z"/>
		<path d="M1771.328,1265.127h-172.021c-21.469,0-38.936-17.466-38.936-38.935v-139.178c0-21.469,17.467-38.935,38.936-38.935
			h172.021c21.469,0,38.936,17.466,38.936,38.935v139.178C1810.264,1247.661,1792.797,1265.127,1771.328,1265.127z
			 M1599.307,1080.08c-3.824,0-6.936,3.111-6.936,6.935v139.178c0,3.824,3.111,6.935,6.936,6.935h172.021
			c3.824,0,6.936-3.11,6.936-6.935v-139.178c0-3.824-3.111-6.935-6.936-6.935H1599.307z"/>
		<path d="M600.693,1533.706H428.671c-21.469,0-38.935-17.466-38.935-38.935v-139.179c0-21.469,17.466-38.935,38.935-38.935h172.022
			c21.469,0,38.936,17.466,38.936,38.935v139.179C639.629,1516.241,622.162,1533.706,600.693,1533.706z M428.671,1348.659
			c-3.824,0-6.935,3.11-6.935,6.935v139.179c0,3.824,3.111,6.935,6.935,6.935h172.022c3.824,0,6.936-3.11,6.936-6.935v-139.179
			c0-3.824-3.111-6.935-6.936-6.935H428.671z"/>
		<path d="M893.353,1533.706H721.33c-21.469,0-38.935-17.466-38.935-38.935v-139.179c0-21.469,17.466-38.935,38.935-38.935h172.022
			c21.469,0,38.935,17.466,38.935,38.935v139.179C932.287,1516.241,914.821,1533.706,893.353,1533.706z M721.33,1348.659
			c-3.824,0-6.935,3.11-6.935,6.935v139.179c0,3.824,3.11,6.935,6.935,6.935h172.022c3.823,0,6.935-3.11,6.935-6.935v-139.179
			c0-3.824-3.111-6.935-6.935-6.935H721.33z"/>
		<path d="M1186.011,1533.706h-172.021c-21.469,0-38.936-17.466-38.936-38.935v-139.179c0-21.469,17.467-38.935,38.936-38.935
			h172.021c21.469,0,38.936,17.466,38.936,38.935v139.179C1224.946,1516.241,1207.479,1533.706,1186.011,1533.706z
			 M1013.989,1348.659c-3.824,0-6.936,3.11-6.936,6.935v139.179c0,3.824,3.111,6.935,6.936,6.935h172.021
			c3.824,0,6.936-3.11,6.936-6.935v-139.179c0-3.824-3.111-6.935-6.936-6.935H1013.989z"/>
		<path d="M1478.67,1533.706h-172.022c-21.469,0-38.935-17.466-38.935-38.935v-139.179c0-21.469,17.466-38.935,38.935-38.935
			h172.022c21.469,0,38.935,17.466,38.935,38.935v139.179C1517.604,1516.241,1500.139,1533.706,1478.67,1533.706z
			 M1306.647,1348.659c-3.823,0-6.935,3.11-6.935,6.935v139.179c0,3.824,3.111,6.935,6.935,6.935h172.022
			c3.824,0,6.935-3.11,6.935-6.935v-139.179c0-3.824-3.11-6.935-6.935-6.935H1306.647z"/>
		<path d="M1771.328,1533.706h-172.021c-21.469,0-38.936-17.466-38.936-38.935v-139.179c0-21.469,17.467-38.935,38.936-38.935
			h172.021c21.469,0,38.936,17.466,38.936,38.935v139.179C1810.264,1516.241,1792.797,1533.706,1771.328,1533.706z
			 M1599.307,1348.659c-3.824,0-6.936,3.11-6.936,6.935v139.179c0,3.824,3.111,6.935,6.936,6.935h172.021
			c3.824,0,6.936-3.11,6.936-6.935v-139.179c0-3.824-3.111-6.935-6.936-6.935H1599.307z"/>
		<path d="M600.693,1802.286H428.671c-21.469,0-38.935-17.467-38.935-38.936v-139.178c0-21.469,17.466-38.935,38.935-38.935h172.022
			c21.469,0,38.936,17.466,38.936,38.935v139.178C639.629,1784.819,622.162,1802.286,600.693,1802.286z M428.671,1617.238
			c-3.824,0-6.935,3.11-6.935,6.935v139.178c0,3.824,3.111,6.936,6.935,6.936h172.022c3.824,0,6.936-3.111,6.936-6.936v-139.178
			c0-3.824-3.111-6.935-6.936-6.935H428.671z"/>
		<path d="M893.353,1802.286H721.33c-21.469,0-38.935-17.467-38.935-38.936v-139.178c0-21.469,17.466-38.935,38.935-38.935h172.022
			c21.469,0,38.935,17.466,38.935,38.935v139.178C932.287,1784.819,914.821,1802.286,893.353,1802.286z M721.33,1617.238
			c-3.824,0-6.935,3.11-6.935,6.935v139.178c0,3.824,3.11,6.936,6.935,6.936h172.022c3.823,0,6.935-3.111,6.935-6.936v-139.178
			c0-3.824-3.111-6.935-6.935-6.935H721.33z"/>
		<path d="M1186.011,1802.286h-172.021c-21.469,0-38.936-17.467-38.936-38.936v-139.178c0-21.469,17.467-38.935,38.936-38.935
			h172.021c21.469,0,38.936,17.466,38.936,38.935v139.178C1224.946,1784.819,1207.479,1802.286,1186.011,1802.286z
			 M1013.989,1617.238c-3.824,0-6.936,3.11-6.936,6.935v139.178c0,3.824,3.111,6.936,6.936,6.936h172.021
			c3.824,0,6.936-3.111,6.936-6.936v-139.178c0-3.824-3.111-6.935-6.936-6.935H1013.989z"/>
		<path d="M1478.67,1802.286h-172.022c-21.469,0-38.935-17.467-38.935-38.936v-139.178c0-21.469,17.466-38.935,38.935-38.935
			h172.022c21.469,0,38.935,17.466,38.935,38.935v139.178C1517.604,1784.819,1500.139,1802.286,1478.67,1802.286z
			 M1306.647,1617.238c-3.823,0-6.935,3.11-6.935,6.935v139.178c0,3.824,3.111,6.936,6.935,6.936h172.022
			c3.824,0,6.935-3.111,6.935-6.936v-139.178c0-3.824-3.11-6.935-6.935-6.935H1306.647z"/>
		<path d="M1771.328,1802.286h-172.021c-21.469,0-38.936-17.467-38.936-38.936v-139.178c0-21.469,17.467-38.935,38.936-38.935
			h172.021c21.469,0,38.936,17.466,38.936,38.935v139.178C1810.264,1784.819,1792.797,1802.286,1771.328,1802.286z
			 M1599.307,1617.238c-3.824,0-6.936,3.11-6.936,6.935v139.178c0,3.824,3.111,6.936,6.936,6.936h172.021
			c3.824,0,6.936-3.111,6.936-6.936v-139.178c0-3.824-3.111-6.935-6.936-6.935H1599.307z"/>
		<path style="fill:#53A6F9;" d="M1116.547,1218.36c-0.195,0-0.391-0.004-0.586-0.011c-6.131-0.224-11.595-3.934-14.063-9.55
			c-0.184-0.413-19.726-43.857-55.963-70.727c-7.099-5.263-8.586-15.284-3.323-22.382c5.263-7.099,15.284-8.585,22.383-3.323
			c23.499,17.425,40.743,39.985,51.734,57.281c43.757-72.341,101.051-130.173,103.735-132.865c6.239-6.259,16.37-6.274,22.627-0.035
			c6.259,6.239,6.273,16.37,0.035,22.627c-0.696,0.699-70.414,71.128-112.443,150.473
			C1127.902,1215.098,1122.454,1218.36,1116.547,1218.36z"/>
		<path d="M448.779,503.825c-8.836,0-16-7.164-16-16V317.697c0-8.836,7.164-16,16-16c8.837,0,16,7.164,16,16v170.128
			C464.779,496.661,457.616,503.825,448.779,503.825z"/>
		<path d="M709.267,503.825c-8.836,0-16-7.164-16-16V317.697c0-8.836,7.164-16,16-16c8.837,0,16,7.164,16,16v170.128
			C725.267,496.661,718.104,503.825,709.267,503.825z"/>
		<path d="M969.756,503.825c-8.836,0-16-7.164-16-16V317.697c0-8.836,7.164-16,16-16c8.837,0,16,7.164,16,16v170.128
			C985.756,496.661,978.593,503.825,969.756,503.825z"/>
		<path d="M1230.244,503.825c-8.836,0-16-7.164-16-16V317.697c0-8.836,7.164-16,16-16c8.837,0,16,7.164,16,16v170.128
			C1246.244,496.661,1239.081,503.825,1230.244,503.825z"/>
		<path d="M1490.733,503.825c-8.836,0-16-7.164-16-16V317.697c0-8.836,7.164-16,16-16c8.837,0,16,7.164,16,16v170.128
			C1506.733,496.661,1499.57,503.825,1490.733,503.825z"/>
		<path d="M1751.221,503.825c-8.836,0-16-7.164-16-16V317.697c0-8.836,7.164-16,16-16c8.837,0,16,7.164,16,16v170.128
			C1767.221,496.661,1760.058,503.825,1751.221,503.825z"/>
	</g>
</g>
</svg>
